<svg id="Background" xmlns="http://www.w3.org/2000/svg" viewBox="0 0 122.23 99.99"><defs><style>.cls-1{fill:#90dbfc;}.cls-2{fill:#3db3f4;}.cls-3{fill:#99e5ff;}.cls-4{fill:#f5c16e;}.cls-5{fill:#9f4f56;}.cls-6{fill:#d16e57;}.cls-7{fill:#808e97;}.cls-8{fill:#394e59;}.cls-9{fill:#fff;}.cls-10{fill:#84b1aa;}.cls-11{fill:#1f2b38;}.cls-12{fill:#405260;}.cls-13{fill:#c4e9fe;}</style></defs><title>Vector Smart Object9</title><circle class="cls-1" cx="18.1" cy="25.31" r="4.45"/><circle class="cls-1" cx="4.45" cy="25.31" r="4.45"/><rect class="cls-1" x="4.45" y="20.86" width="13.66" height="8.89"/><circle class="cls-1" cx="15.92" cy="20.66" r="3.33"/><circle class="cls-1" cx="8.53" cy="21.18" r="6.13"/><circle class="cls-2" cx="96.16" cy="29.22" r="2.25"/><circle class="cls-2" cx="89.25" cy="29.22" r="2.25"/><rect class="cls-2" x="89.25" y="26.97" width="6.91" height="4.5"/><circle class="cls-2" cx="95.06" cy="26.87" r="1.69"/><circle class="cls-2" cx="91.32" cy="27.13" r="3.1"/><circle class="cls-3" cx="106.21" cy="20.47" r="3.94"/><circle class="cls-3" cx="118.3" cy="20.47" r="3.94"/><rect class="cls-3" x="106.21" y="16.54" width="12.09" height="7.87"/><circle class="cls-3" cx="108.14" cy="16.36" r="2.95"/><circle class="cls-3" cx="114.68" cy="16.82" r="5.43"/><rect class="cls-4" x="58.35" y="35.85" width="7.52" height="5.31"/><rect class="cls-5" x="12.49" y="89.23" width="91.72" height="10.76"/><rect class="cls-6" x="12.49" y="59.88" width="91.72" height="29.34"/><rect class="cls-4" x="7.18" y="57.97" width="102.33" height="1.92"/><polygon class="cls-7" points="109.51 57.97 7.18 57.97 36.67 43.81 80.02 43.81 109.51 57.97"/><polygon class="cls-6" points="64.91 51.77 64.91 48.68 51.78 48.68 51.78 51.77 45.74 51.77 45.74 57.97 70.95 57.97 70.95 51.77 64.91 51.77"/><rect class="cls-8" x="47.88" y="65.05" width="20.94" height="34.95"/><rect class="cls-4" x="46.18" y="63.87" width="24.33" height="2.21"/><rect class="cls-9" x="18.75" y="61.95" width="10.03" height="10.03"/><rect class="cls-9" x="18.75" y="75.96" width="10.03" height="11.35"/><rect class="cls-9" x="33.79" y="61.95" width="10.03" height="10.03"/><rect class="cls-9" x="33.79" y="75.96" width="10.03" height="11.35"/><rect class="cls-9" x="72.87" y="61.95" width="10.03" height="10.03"/><rect class="cls-9" x="72.87" y="75.96" width="10.03" height="11.35"/><rect class="cls-9" x="87.91" y="61.95" width="10.03" height="10.03"/><rect class="cls-9" x="87.91" y="75.96" width="10.03" height="11.35"/><rect class="cls-10" x="53.41" y="68.73" width="9.88" height="9.88"/><rect class="cls-5" x="52.37" y="81.78" width="11.94" height="18.21"/><path class="cls-11" d="M200.68,200.84h-1.92a.29.29,0,0,1-.29-.29v-3.83a.29.29,0,1,1,.59,0v3.54h1.62a.29.29,0,1,1,0,.59Z" transform="translate(-140.42 -125.99)"/><path class="cls-11" d="M198.76,174.81a.15.15,0,0,1-.15-.15V161.84a.15.15,0,0,1,.29,0v12.83A.15.15,0,0,1,198.76,174.81Z" transform="translate(-140.42 -125.99)"/><rect class="cls-12" x="74.86" y="41.16" width="3.54" height="2.65"/><rect class="cls-12" x="38.29" y="41.16" width="3.54" height="2.65"/><circle class="cls-13" cx="61.92" cy="10.26" r="4.45"/><circle class="cls-13" cx="48.27" cy="10.26" r="4.45"/><rect class="cls-13" x="48.27" y="5.81" width="13.66" height="8.89"/><circle class="cls-13" cx="59.74" cy="5.61" r="3.33"/><circle class="cls-13" cx="52.36" cy="6.13" r="6.13"/></svg>